P2
# CREATOR: GIMP PNM Filter Version 1.1
48 48
255
83
86
90 #THIS PICTURE IS OF A PLANE
92
94
97
80
89
99
101
103
104 #THIS PICTURE IS OF A PLANE
106
107
107
111
112
113








112 #THIS PICTURE IS OF A PLANE
112
114
118
119
119
124
123
120
120
119
121
124
120
117
120
114
111
107
108
108
106
103
101
100
96
94
93
93
90
111
117
121
122
126
132
90
132
135
134
136
140
144
145
146
147
148
152
151
149
149
155
155
161
162
160
156
161
163
168
165
157
159
153
146
145
144
142
141
138
136
134
133
130
129
128
124
114
118
122
125
125
131
133
91
142
137
139
145
147
147
149
151
149
151
155
152
151
153
158
156
158
161
164
163
155
159
172
168
160
156
151
147
148
148
145
142
140
138
136
134
134
132
129
128
97
123
127
129
131
134
135
96
146
144
146
150
150
153
158
159
159
160
160
156
155
155
159
159
165
157
170
168
166
179
172
165
160
158
157
154
151
149
149
147
143
141
140
137
135
136
133
131
93
129
132
136
136
140
120
120
149
151
152
152
155
159
163
164
163
165
164
161
158
162
165
167
172
167
170
171
168
173
168
165
161
162
162
160
159
157
154
150
149
146
144
140
139
139
137
127
110
135
134
139
141
148
98
146
150
154
155
159
160
163
168
167
169
170
170
167
167
168
170
171
181
176
170
172
175
174
172
171
167
167
167
165
164
164
161
156
155
153
148
147
144
146
144
120
130
137
137
143
148
152
95
155
157
161
163
165
166
167
171
170
175
175
174
172
172
172
174
177
182
174
173
177
177
180
173
172
172
173
173
171
168
168
164
159
155
156
152
153
149
147
147
121
135
141
145
147
153
149
105
161
161
166
167
169
173
174
176
177
177
177
178
177
175
173
179
180
181
182
180
178
181
191
183
178
178
178
175
174
174
172
168
163
161
158
155
153
153
151
146
122
142
141
144
151
154
131
135
162
165
167
170
172
174
176
179
183
184
181
178
184
182
182
185
185
184
186
186
189
183
182
181
180
181
181
181
178
177
175
172
167
165
164
160
159
156
155
149
126
147
145
149
156
158
124
156
168
170
172
175
179
181
186
186
188
188
188
187
186
185
188
188
189
187
189
186
186
190
185
183
187
185
186
186
185
182
179
178
171
170
167
166
166
164
162
149
136
152
151
154
159
160
131
162
171
173
175
180
181
186
188
188
190
189
192
191
191
190
192
192
194
192
191
190
185
192
188
189
188
190
189
191
190
187
185
184
178
173
171
170
168
168
168
132
159
158
154
161
162
163
134
170
177
180
182
185
185
190
193
195
193
196
195
195
194
192
196
197
195
195
196
194
189
193
190
190
190
191
192
193
192
189
187
185
180
175
173
172
171
169
166
129
166
160
158
166
167
165
138
176
181
182
186
187
187
190
193
199
196
199
202
197
199
196
198
199
198
199
198
197
192
194
193
192
193
195
192
195
193
192
189
187
183
180
177
174
175
173
160
140
166
162
163
168
172
158
148
177
183
185
188
189
192
195
198
203
202
202
201
197
201
200
202
203
204
202
199
199
197
196
197
195
195
196
194
198
199
195
195
192
186
181
181
179
178
177
136
172
168
166
165
169
176
136
169
181
182
185
189
188
194
197
200
204
205
205
203
202
205
200
202
207
206
205
202
201
201
199
199
195
198
202
199
198
200
197
198
195
188
185
182
183
181
179
136
178
171
169
165
170
178
116
183
182
184
187
191
194
197
198
198
206
209
206
207
206
208
206
207
208
210
206
206
202
202
201
202
199
201
203
202
203
202
200
199
197
189
187
185
182
185
172
147
178
172
172
171
178
175
125
185
185
188
190
194
201
200
200
202
209
207
210
210
209
211
212
212
210
211
207
205
206
207
202
203
203
205
204
207
206
203
204
203
198
192
191
189
187
188
159
174
182
178
177
173
181
142
164
189
189
191
194
198
201
202
202
207
210
208
210
212
210
210
212
210
212
214
210
211
211
209
207
206
206
209
207
207
211
208
205
206
203
198
192
190
189
192
144
142
145
144
138
175
185
121
187
189
191
194
199
205
200
200
207
208
211
208
211
212
213
214
213
210
214
215
212
213
213
212
212
210
212
210
211
213
213
208
207
206
203
198
195
192
191
192
178
168
169
168
166
177
184
125
190
190
194
199
204
204
203
206
209
208
214
212
214
216
215
215
213
214
215
216
213
211
214
214
214
214
214
213
214
215
213
212
211
209
206
200
196
194
193
193
190
185
186
184
181
181
164
155
191
192
195
200
206
204
204
207
210
212
215
215
218
216
217
216
216
217
218
219
218
216
217
215
219
217
214
214
214
213
214
214
213
211
207
201
196
195
195
195
191
187
189
185
184
186
145
181
196
195
198
205
206
208
206
211
211
213
216
217
219
217
219
217
218
221
222
219
219
216
220
218
219
219
217
216
215
216
217
214
215
213
210
205
199
198
196
196
193
192
190
187
185
186
144
184
198
199
203
208
206
207
212
213
214
214
216
221
220
220
220
219
219
220
220
220
219
220
219
219
218
219
217
217
216
216
218
216
212
213
210
206
201
199
198
198
197
195
194
191
190
181
152
191
199
202
206
207
209
208
212
216
221
157
193
221
222
223
222
222
222
223
222
221
221
221
219
220
219
220
218
218
215
216
217
216
215
216
211
204
201
199
196
198
200
197
197
193
193
180
156
196
200
202
205
205
211
209
211
219
197
107
217
222
222
220
218
221
222
225
224
222
223
224
222
221
220
220
218
219
218
217
218
220
217
216
212
202
199
200
198
197
196
195
199
195
191
175
158
197
200
204
202
206
210
210
213
217
162
127
163
216
227
225
168
154
220
226
228
224
223
222
222
222
223
224
221
219
221
221
220
221
219
217
214
208
205
203
200
199
197
194
193
194
191
148
183
197
201
206
208
208
211
213
216
198
160
180
153
112
174
205
162
153
207
193
116
214
224
222
223
222
222
223
223
221
222
223
223
223
222
219
216
207
204
203
200
201
198
193
196
197
194
136
200
201
202
205
210
213
214
218
220
201
188
185
190
187
136
123
180
179
202
107
122
204
224
222
225
224
224
224
224
223
223
223
224
222
222
220
218
210
204
204
203
200
201
199
201
199
195
147
204
203
204
206
209
211
213
217
219
222
226
207
187
189
189
178
185
143
114
147
147
203
157
202
227
225
225
226
224
224
224
223
224
223
223
222
217
211
208
208
206
202
202
200
198
198
196
183
200
204
205
209
212
215
216
223
222
223
227
227
217
191
179
174
179
158
157
119
163
194
163
167
223
225
225
225
224
224
225
224
224
225
225
225
221
217
209
209
208
206
203
204
202
198
200
196
201
207
205
210
212
216
219
223
223
225
227
227
229
225
176
167
182
188
238
204
112
162
193
209
226
225
225
225
225
224
225
224
225
225
225
225
222
218
211
209
207
207
206
204
204
201
202
199
203
206
208
213
215
217
217
222
223
225
227
226
227
229
225
204
169
227
224
167
177
194
171
187
229
226
225
227
225
225
225
224
225
226
225
225
224
220
215
211
209
206
206
206
202
200
201
197
204
206
210
214
217
217
219
222
221
226
227
226
227
228
228
218
201
230
220
170
187
187
198
156
152
221
226
184
215
225
225
225
225
226
225
224
224
220
216
213
212
205
206
206
206
203
202
199
203
208
209
212
216
219
219
219
220
225
227
226
228
228
228
211
225
229
202
196
174
188
207
209
172
134
182
135
217
224
225
225
225
226
225
225
224
222
202
193
198
195
194
194
194
191
190
199
203
206
210
212
216
217
218
218
222
223
226
230
228
228
225
213
226
226
227
228
211
206
201
198
214
201
129
184
224
224
225
224
225
226
226
226
224
225
152
186
181
175
175
172
168
166
161
198
205
209
211
211
216
218
217
220
223
227
158
161
224
228
223
212
225
224
226
227
226
226
224
215
201
195
167
223
224
224
225
225
224
225
225
225
223
219
160
215
212
206
208
208
207
204
201
198
203
206
213
212
216
219
218
220
224
223
183
122
106
176
201
212
222
226
226
227
226
226
226
226
228
204
209
226
224
224
225
225
225
226
224
225
226
200
179
215
212
207
205
207
207
205
202
196
204
206
210
213
217
219
219
222
225
224
196
193
181
133
134
184
223
228
226
226
226
226
226
225
225
225
226
225
224
224
224
225
225
226
225
225
227
168
212
215
211
206
206
206
208
205
202
197
205
206
209
212
218
217
221
224
225
225
225
212
196
192
130
152
105
198
227
226
226
226
225
225
225
225
225
225
225
224
225
225
225
225
226
225
225
168
216
215
207
204
209
204
204
204
200
200
203
204
210
213
217
216
220
223
225
224
227
228
225
179
178
205
188
99
166
225
226
226
226
225
225
225
224
225
224
224
225
224
224
226
225
224
214
184
215
214
210
206
207
203
204
203
200
197
202
204
209
211
215
217
218
222
221
224
226
225
227
226
217
209
203
196
189
224
226
225
226
225
225
225
224
225
224
224
225
225
225
225
225
223
196
205
212
210
210
205
206
204
204
204
201
196
200
206
209
210
214
217
217
221
221
222
226
224
226
226
226
227
222
203
216
225
226
225
225
225
225
225
224
225
224
224
225
224
224
225
224
223
194
208
215
210
209
208
203
204
204
205
202
196
202
207
209
212
215
215
216
219
221
222
224
224
226
225
226
226
227
227
226
226
225
226
225
225
225
225
224
224
224
224
225
224
224
225
224
221
193
208
214
210
206
203
201
201
202
200
200
199
201
205
209
212
214
215
216
218
218
221
225
223
225
224
225
226
227
225
226
225
224
225
225
225
225
225
224
224
224
224
224
224
225
224
222
215
192
215
212
209
206
205
202
201
203
203
202
197
203
206
210
209
210
214
215
217
219
221
223
223
225
226
225
226
226
225
226
226
225
224
224
224
225
224
223
224
223
223
224
223
224
224
223
211
190
214
211
210
210
205
203
205
206
200
201
195
200
201
209
208
206
211
211
216
216
217
223
221
223
225
224
225
226
226
225
225
225
224
225
224
224
224
223
223
223
223
223
223
224
224
224
203
197
213
210
208
210
206
206
209
205
199
200
199
204
206
212
210
212
215
214
218
220
220
224
225
225
226
226
226
226
227
225
227
226
225
226
225
225
225
224
225
224
224
225
225
225
225
226
179
218
215
217
213
212
208
209
209
207
205
204
199
206
207
211
208
211
215
214
214
216
217
219
222
222
224
218
221
219
217
216
216
213
214
211
211
209
208
208
207
206
205
208
207
205
210
207
187
202
201
200
201
201
200
192
197
198
198
197
